<svg xmlns="http://www.w3.org/2000/svg" fill="none" viewBox="0 0 400 300"><rect width="200" height="120" x="80" y="140" fill="#1f2937" rx="8"/><rect width="180" height="100" x="90" y="150" fill="#111827" rx="4"/><text x="100" y="170" fill="#10b981" font-family="monospace" font-size="8">&lt;div className=&quot;hero&quot;&gt;</text><text x="100" y="185" fill="#3b82f6" font-family="monospace" font-size="8">  &lt;h1&gt;Design Template&lt;/h1&gt;</text><text x="100" y="200" fill="#f59e0b" font-family="monospace" font-size="8">  &lt;Button onClick={build}&gt;</text><text x="100" y="215" fill="#ef4444" font-family="monospace" font-size="8">    Launch App</text><text x="100" y="230" fill="#f59e0b" font-family="monospace" font-size="8">  &lt;/Button&gt;</text><text x="100" y="245" fill="#10b981" font-family="monospace" font-size="8">&lt;/div&gt;</text><rect width="210" height="15" x="75" y="260" fill="#374151" rx="7"/><circle cx="300" cy="100" r="20" fill="#fbbf24"/><path fill="#3b82f6" d="M295 120h10v30h-10z"/><path fill="#f59e0b" d="M290 135h8v20h-8zM307 135h8v20h-8z"/><rect width="15" height="20" x="320" y="200" fill="#fff" rx="3"/><path fill="#6b4423" d="M325 195h5v8h-5z"/><rect width="120" height="80" x="50" y="50" fill="#000" rx="6"/><circle cx="60" cy="60" r="3" fill="#ef4444"/><circle cx="70" cy="60" r="3" fill="#f59e0b"/><circle cx="80" cy="60" r="3" fill="#10b981"/><path fill="#10b981" d="M60 75h80v3H60z"/><path fill="#3b82f6" d="M60 85h60v3H60z"/><path fill="#f59e0b" d="M60 95h90v3H60z"/><path fill="#10b981" d="M60 105h40v3H60z"/></svg>