<svg xmlns="http://www.w3.org/2000/svg" fill="none" viewBox="0 0 400 300"><rect width="180" height="140" x="50" y="50" fill="#fff" stroke="#e9ecef" stroke-width="2" rx="8"/><rect width="140" height="8" x="70" y="70" fill="#6366f1" rx="4"/><rect width="100" height="6" x="70" y="90" fill="#6b7280" rx="3"/><rect width="120" height="6" x="70" y="105" fill="#6b7280" rx="3"/><rect width="40" height="25" x="70" y="130" fill="#10b981" rx="6"/><rect width="40" height="25" x="120" y="130" fill="#f8f9fa" stroke="#e9ecef" rx="6"/><rect width="40" height="25" x="170" y="130" fill="#ef4444" rx="6"/><circle cx="80" cy="170" r="8" fill="#6366f1"/><circle cx="105" cy="170" r="8" fill="#10b981"/><circle cx="130" cy="170" r="8" fill="#f59e0b"/><circle cx="155" cy="170" r="8" fill="#ef4444"/><circle cx="180" cy="170" r="8" fill="#8b5cf6"/><circle cx="300" cy="80" r="20" fill="#ec4899"/><path fill="#3b82f6" d="M295 100h10v30h-10z"/><path fill="#f59e0b" d="M288 115h10v20h-10zM302 115h10v20h-10z"/><path fill="#1f2937" d="M290 135h7v25h-7zM303 135h7v25h-7z"/><rect width="40" height="30" x="285" y="160" fill="#1f2937" rx="4"/><rect width="30" height="20" x="290" y="165" fill="#6366f1" rx="2"/><path fill="#fff" d="M295 170h20v3h-20z" opacity=".8"/><path fill="#fff" d="M295 175h15v2h-15zM295 180h10v2h-10z" opacity=".6"/><rect width="60" height="40" x="280" y="200" fill="#f8f9fa" stroke="#e9ecef" rx="6"/><circle cx="290" cy="210" r="4" fill="#6366f1"/><circle cx="305" cy="210" r="4" fill="#10b981"/><circle cx="320" cy="210" r="4" fill="#ef4444"/><path fill="#6b7280" d="m300.927 221.962 24.148 6.47-.777 2.899-24.148-6.47z"/><circle cx="325" cy="232" r="2" fill="#1f2937"/><rect width="12" height="12" x="30" y="80" fill="#8b5cf6" opacity=".6" rx="2"/><circle cx="350" cy="60" r="6" fill="#10b981" opacity=".5"/><rect width="8" height="8" x="340" y="120" fill="#f59e0b" opacity=".7" rx="2"/><circle cx="370" cy="180" r="5" fill="#ec4899" opacity=".6"/><circle cx="60" cy="220" r="15" fill="#6366f1"/><text x="56" y="225" fill="#fff" font-size="12" font-weight="bold">1</text><circle cx="140" cy="220" r="15" fill="#10b981"/><text x="136" y="225" fill="#fff" font-size="12" font-weight="bold">2</text><circle cx="220" cy="220" r="15" fill="#ef4444"/><text x="216" y="225" fill="#fff" font-size="12" font-weight="bold">3</text><path stroke="#6b7280" stroke-width="2" marker-end="url(#a)" d="M75 220h50"/><path stroke="#6b7280" stroke-width="2" marker-end="url(#a)" d="M155 220h50"/><defs><marker id="a" markerHeight="7" markerWidth="10" orient="auto" refX="10" refY="3.5"><path fill="#6b7280" d="m0 0 10 3.5L0 7z"/></marker></defs></svg>