<svg xmlns="http://www.w3.org/2000/svg" fill="none" viewBox="0 0 400 300"><rect width="40" height="80" x="180" y="80" fill="#6366f1" rx="20"/><path fill="#ef4444" d="m180 60 20-20 20 20z"/><path fill="#fff" d="M185 100h30v3h-30zM185 110h30v3h-30zM185 120h30v3h-30z" opacity=".8"/><circle cx="200" cy="140" r="8" fill="#fff" opacity=".9"/><path fill="#f59e0b" d="m185 160 10 20 10-20 10 20-10-20h-10z"/><path fill="#ef4444" d="m190 160 7 15 6-15 7 15-7-15h-6z"/><rect width="120" height="80" x="80" y="180" fill="#1f2937" rx="8"/><rect width="100" height="60" x="90" y="190" fill="#10b981" rx="4"/><rect width="80" height="6" x="100" y="205" fill="#fff" opacity=".9" rx="3"/><rect width="60" height="4" x="100" y="220" fill="#fff" opacity=".7" rx="2"/><rect width="70" height="4" x="100" y="235" fill="#fff" opacity=".7" rx="2"/><rect width="130" height="10" x="75" y="260" fill="#374151" rx="5"/><circle cx="320" cy="120" r="20" fill="#fbbf24"/><path fill="#3b82f6" d="M315 140h10v25h-10z"/><path fill="#f59e0b" d="m302.036 147.938 6.928-4 7.5 12.99-6.928 4zM331.036 143.938l6.928 4-7.5 12.99-6.928-4zM310 165h8v20h-8zM322 165h8v20h-8z"/><path fill="#1f2937" d="M312 185h7v20h-7zM321 185h7v20h-7z"/><circle cx="300" cy="50" r="8" fill="#10b981"/><text x="297" y="55" fill="#fff" font-size="10" font-weight="bold">✓</text><circle cx="340" cy="80" r="8" fill="#10b981"/><text x="337" y="85" fill="#fff" font-size="10" font-weight="bold">✓</text><path fill="#fbbf24" d="m50 50 2 6h6l-5 4 2 6-5-4-5 4 2-6-5-4h6z" opacity=".8"/><path fill="#ec4899" d="m350 30 1 4h4l-3 3 1 4-3-3-3 3 1-4-3-3h4z" opacity=".7"/><rect width="12" height="12" x="40" y="120" fill="#8b5cf6" opacity=".6" rx="2"/><circle cx="370" cy="150" r="6" fill="#10b981" opacity=".5"/><rect width="8" height="8" x="30" y="200" fill="#f59e0b" opacity=".7" rx="2"/></svg>