<svg xmlns="http://www.w3.org/2000/svg" fill="none" viewBox="0 0 400 300"><rect width="60" height="110" x="80" y="50" fill="#1f2937" rx="12"/><rect width="50" height="85" x="85" y="60" fill="#6366f1" rx="6"/><circle cx="110" cy="155" r="4" fill="#fff"/><rect width="40" height="6" x="90" y="70" fill="#fff" opacity=".9" rx="3"/><rect width="15" height="15" x="90" y="85" fill="#10b981" rx="3"/><rect width="15" height="15" x="110" y="85" fill="#f59e0b" rx="3"/><rect width="40" height="4" x="90" y="110" fill="#fff" opacity=".7" rx="2"/><rect width="30" height="4" x="90" y="120" fill="#fff" opacity=".7" rx="2"/><rect width="60" height="110" x="180" y="40" fill="#1f2937" rx="12"/><rect width="50" height="85" x="185" y="50" fill="#10b981" rx="6"/><circle cx="210" cy="145" r="4" fill="#fff"/><rect width="40" height="20" x="190" y="60" fill="#fff" opacity=".9" rx="4"/><rect width="10" height="10" x="195" y="90" fill="#6366f1" rx="2"/><rect width="10" height="10" x="210" y="90" fill="#ef4444" rx="2"/><rect width="10" height="10" x="225" y="90" fill="#f59e0b" rx="2"/><rect width="40" height="3" x="190" y="110" fill="#fff" opacity=".6" rx="1"/><rect width="35" height="3" x="190" y="120" fill="#fff" opacity=".6" rx="1"/><circle cx="320" cy="90" r="22" fill="#ec4899"/><path fill="#3b82f6" d="M315 112h10v35h-10z"/><path fill="#f59e0b" d="M308 130h12v22h-12zM322 130h12v22h-12z"/><path fill="#1f2937" d="M310 152h8v25h-8zM322 152h8v25h-8z"/><rect width="80" height="60" x="290" y="200" fill="#f8f9fa" stroke="#e9ecef" rx="8"/><rect width="15" height="15" x="300" y="210" fill="#6366f1" rx="3"/><rect width="15" height="15" x="320" y="210" fill="#10b981" rx="3"/><rect width="15" height="15" x="340" y="210" fill="#ef4444" rx="3"/><path fill="#6b7280" d="M300 235h60v3h-60zM300 245h45v3h-45z"/><path stroke="#6366f1" stroke-dasharray="3,3" stroke-width="2" d="M150 100q50-20 100 0" opacity=".7"/><path stroke="#10b981" stroke-dasharray="3,3" stroke-width="2" d="M150 120q50 20 100 0" opacity=".7"/><rect width="20" height="20" x="50" y="30" fill="#8b5cf6" opacity=".6" rx="4"/><circle cx="350" cy="50" r="8" fill="#10b981" opacity=".5"/><rect width="12" height="12" x="30" y="180" fill="#f59e0b" opacity=".7" rx="2"/><circle cx="370" cy="220" r="6" fill="#ec4899" opacity=".6"/></svg>