<svg xmlns="http://www.w3.org/2000/svg" fill="none" viewBox="0 0 400 300"><circle cx="120" cy="80" r="18" fill="#fbbf24"/><path fill="#3b82f6" d="M115 98h10v25h-10z"/><path fill="#f59e0b" d="M110 110h8v18h-8zM122 110h8v18h-8z"/><circle cx="200" cy="85" r="18" fill="#ec4899"/><path fill="#10b981" d="M195 103h10v25h-10z"/><path fill="#f59e0b" d="M190 115h8v18h-8zM202 115h8v18h-8z"/><circle cx="280" cy="80" r="18" fill="#8b5cf6"/><path fill="#ef4444" d="M275 98h10v25h-10z"/><path fill="#f59e0b" d="M270 110h8v18h-8zM282 110h8v18h-8z"/><rect width="240" height="100" x="80" y="160" fill="#f8f9fa" stroke="#e9ecef" stroke-width="2" rx="12"/><rect width="60" height="8" x="100" y="180" fill="#6366f1" rx="4"/><rect width="60" height="8" x="180" y="180" fill="#10b981" rx="4"/><rect width="40" height="8" x="260" y="180" fill="#ef4444" rx="4"/><rect width="80" height="40" x="100" y="200" fill="#1f2937" rx="6"/><path fill="#10b981" d="M110 210h60v3h-60z"/><path fill="#3b82f6" d="M110 220h40v3h-40z"/><path fill="#f59e0b" d="M110 230h50v3h-50z"/><rect width="80" height="40" x="220" y="200" fill="#fff" stroke="#e9ecef" rx="6"/><rect width="25" height="15" x="230" y="210" fill="#6366f1" rx="3"/><rect width="25" height="15" x="265" y="210" fill="#10b981" rx="3"/><path fill="#6b7280" d="M230 230h60v3h-60z"/><path stroke="#6366f1" stroke-dasharray="5,5" stroke-width="2" d="M120 130h160"/><circle cx="50" cy="50" r="6" fill="#fbbf24" opacity=".7"/><circle cx="350" cy="40" r="8" fill="#10b981" opacity=".6"/><rect width="12" height="12" x="340" y="220" fill="#ef4444" opacity=".5" rx="2"/></svg>