<svg xmlns="http://www.w3.org/2000/svg" fill="none" viewBox="0 0 400 300"><rect width="200" height="120" x="50" y="80" fill="#f8f9fa" stroke="#e9ecef" stroke-width="2" rx="8"/><rect width="180" height="90" x="60" y="90" fill="#6366f1" rx="4"/><path fill="#6c757d" d="M140 200h20v30h-20z"/><rect width="60" height="8" x="120" y="230" fill="#6c757d" rx="4"/><rect width="160" height="8" x="70" y="100" fill="#fff" opacity=".8" rx="4"/><rect width="120" height="6" x="70" y="115" fill="#fff" opacity=".6" rx="3"/><rect width="140" height="6" x="70" y="128" fill="#fff" opacity=".6" rx="3"/><rect width="40" height="15" x="70" y="145" fill="#10b981" rx="7"/><rect width="40" height="15" x="120" y="145" fill="#fff" opacity=".3" rx="7"/><circle cx="300" cy="120" r="25" fill="#fbbf24"/><path fill="#3b82f6" d="M290 145h20v40h-20z"/><path fill="#f59e0b" d="M285 160h10v25h-10zM305 160h10v25h-10z"/><path fill="#1f2937" d="M288 185h7v20h-7zM305 185h7v20h-7z"/><circle cx="320" cy="200" r="8" fill="#ef4444"/><circle cx="340" cy="190" r="6" fill="#8b5cf6"/><path fill="#6b7280" d="M310 220h40v3h-40z"/><circle cx="80" cy="50" r="8" fill="#10b981" opacity=".6"/><rect width="15" height="15" x="300" y="60" fill="#f59e0b" opacity=".7" rx="3"/><circle cx="350" cy="100" r="6" fill="#3b82f6" opacity=".5"/></svg>