<svg xmlns="http://www.w3.org/2000/svg" fill="currentColor" viewBox="0 0 24 24"><path d="M19.5 12c0-.23-.01-.45-.03-.68l1.86-1.41c.4-.3.51-.86.26-1.3l-1.87-3.23c-.25-.44-.79-.62-1.25-.42l-2.15.91c-.37-.26-.76-.49-1.17-.68L14.9 2.7c-.1-.5-.5-.87-1.01-.87h-3.73c-.51 0-.91.37-1.01.87l-.25 2.49c-.41.19-.8.42-1.17.68l-2.15-.91c-.46-.2-1-.02-1.25.42L2.46 8.61c-.25.44-.14 1 .26 1.3L4.58 11.3c-.02.23-.03.45-.03.68s.01.45.03.68L2.72 14.08c-.4.3-.51.86-.26 1.3l1.87 3.23c.25.44.79.62 1.25.42l2.15-.91c.37.26.76.49 1.17.68l.25 2.49c.1.5.5.87 1.01.87h3.73c.51 0 .91-.37 1.01-.87l.25-2.49c.41-.19.8-.42 1.17-.68l2.15.91c.46.2 1 .02 1.25-.42l1.87-3.23c.25-.44.14-1-.26-1.3l-1.86-1.41c.02-.23.03-.45.03-.68zM12 15.5c-1.93 0-3.5-1.57-3.5-3.5s1.57-3.5 3.5-3.5 3.5 1.57 3.5 3.5-1.57 3.5-3.5 3.5z"/></svg>
