<svg xmlns="http://www.w3.org/2000/svg" fill="currentColor" viewBox="0 0 24 24"><path fill-rule="evenodd" d="M11.078 2.25c-.917 0-1.699.663-1.85 1.567L9.05 4.889c-.02.12-.115.26-.297.348a7.5 7.5 0 0 0-.986.57c-.166.115-.334.126-.45.083l-1.038-.28a1.875 1.875 0 0 0-2.69.722l-.99 1.713a1.875 1.875 0 0 0 .365 2.373L4.5 11.825c.09.068.135.2.135.324v.651c0 .124-.045.256-.135.324l-1.536 1.407a1.875 1.875 0 0 0-.365 2.373l.99 1.714a1.875 1.875 0 0 0 2.69.722l1.038-.28c.116-.043.284-.032.45.083.34.234.658.39.986.57.182.088.277.228.297.348l.178 1.071a1.876 1.876 0 0 0 1.85 1.567h1.844c.916 0 1.699-.663 1.85-1.567l.178-1.072c.02-.12.114-.26.297-.347a7.5 7.5 0 0 0 .986-.57c.166-.115.334-.126.45-.084l1.038.281a1.875 1.875 0 0 0 2.69-.722l.99-1.714a1.875 1.875 0 0 0-.365-2.373L19.5 12.675c-.09-.068-.135-.2-.135-.324V11.7c0-.124.045-.256.135-.324l1.536-1.407a1.875 1.875 0 0 0 .365-2.373l-.99-1.714a1.875 1.875 0 0 0-2.69-.722l-1.038.28c-.116.044-.284.033-.45-.083a7.5 7.5 0 0 0-.986-.57c-.182-.088-.277-.228-.297-.348l-.278-.622a1.88 1.88 0 0 0-1.85-1.567h-1.844zM12 15a3 3 0 1 0 0-6 3 3 0 0 0 0 6" clip-rule="evenodd"/></svg>